<?xml version="1.0" encoding="utf-8"?>
<!-- Generator: Adobe Illustrator 16.0.0, SVG Export Plug-In . SVG Version: 6.00 Build 0)  -->
<!DOCTYPE svg PUBLIC "-//W3C//DTD SVG 1.1//EN" "http://www.w3.org/Graphics/SVG/1.1/DTD/svg11.dtd">
<svg id="home-logo" width="660px" height="96px" viewBox="0 0 660 96" version="1.1" xmlns="http://www.w3.org/2000/svg" xmlns:xlink="http://www.w3.org/1999/xlink">
                        <defs><filter id="filter-1" x="-50%" y="-50%" width="200%" height="200%" filterUnits="objectBoundingBox"><feOffset dx="0" dy="2" in="SourceAlpha" result="shadowOffsetOuter1"></feOffset><feGaussianBlur stdDeviation="2" in="shadowOffsetOuter1" result="shadowBlurOuter1"></feGaussianBlur><feColorMatrix values="0 0 0 0 0   0 0 0 0 0   0 0 0 0 0  0 0 0 0.5 0" type="matrix" in="shadowBlurOuter1" result="shadowMatrixOuter1"></feColorMatrix><feMerge><feMergeNode in="shadowMatrixOuter1"></feMergeNode><feMergeNode in="SourceGraphic"></feMergeNode></feMerge></filter>
                        </defs>

                        <g id="Page-1" stroke="none" stroke-width="1" fill="none" fill-rule="evenodd"><g id="01-homepagedesign" transform="translate(-126.000000, -258.000000)" fill="#FFFFFF"><g  transform="translate(130.000000, 260.000000)"><g id="layers_1"><g id="Group" filter="url(#filter-1)"><path id="Shape" d="M589.105494,52.6797586 L589.145102,52.6797586 L589.055984,52.6797586 L589.105494,52.6797586 Z"></path>

                        <!-- 字母R -->
                        <path id="Shape" d="M270.415859,17.5579978 C266.790117,7.33048569 257.024287,0.00288261332 245.543734,0.00288261332 L183.493324,0.00288261332 L183.493324,17.5579978 L245.543734,17.5579978 L245.543734,17.563763 C250.396339,17.563763 254.336734,21.4985302 254.336734,26.3413206 C254.336734,31.1898762 250.396339,35.1246434 245.543734,35.1246434 L245.543734,35.1304086 L208.264414,35.1304086 C205.758726,35.2774219 203.354074,35.7789966 201.085099,36.5659501 C193.570923,39.2266022 187.627132,45.1734334 184.985767,52.6826412 C184.024484,55.4182412 183.493324,58.349859 183.493324,61.4025465 L183.493324,87.8015193 L201.085099,87.8015193 L201.085099,61.4025465 L201.085099,61.4025465 L201.085099,61.4025465 C201.085099,56.8826088 204.514542,53.1582724 208.919703,52.6826412 L225.945677,52.6826412 L243.167949,87.8044019 L262.748686,87.8044019 L245.532187,52.6826412 L245.543734,52.6826412 C257.027173,52.6826412 266.790117,45.3550381 270.415859,35.1304086 C271.385803,32.3717477 271.916962,29.4285995 271.916962,26.3413206 C271.916962,23.2598069 271.385803,20.3137761 270.415859,17.5579978 Z"></path>
				 <path d='M297.150741,70.2464042 L297.150741,70.2406389 L297.150741,70.2406389 C292.295249,70.2406389 288.369287,66.3058717 288.369287,61.4630814 L288.363514,61.4630814 L288.363514,26.338438 L288.369287,26.338438 L288.369287,26.338438 C288.369287,21.4956476 292.295249,17.5608804 297.150741,17.5608804 L297.150741,17.5608804 L297.150741,17.5551152 L293.812802,17.5551152 L294.19249,0 L294.150741,0 C294.070593,0 291.111687,0.530400852 288.363514,1.51048938 C280.869545,4.14808058 274.934414,10.0804988 272.281503,17.5522325 C271.308672,20.3080109 270.777513,23.2569243 270.777513,26.3355554 L270.777513,26.3355554 L270.777513,61.4601987 C270.777513,64.5388298 271.308672,67.4877432 272.281503,70.2435216 C274.934414,77.7181379 280.872431,83.6419083 288.363514,86.2910299 C291.111687,87.2624706 294.070593,87.7957541 297.150741,87.7957541 L331.824349,87.7957541 L297.19249,70.2406389 L297.150741,70.2406389 L297.150741,70.2464042 Z'></path>
				 <!-- 右半边 -->
				 <path d='M332.029259,17.543596 L332.029259,17.549361 L332.029259,17.549361 C336.884751,17.549361 340.810713,21.484128 340.810713,26.326919 L340.816486,26.326919 L340.816486,61.451562 L340.810713,61.451562 L340.810713,61.451562 C340.810713,66.294352 336.884751,70.22912 332.029259,70.22912 L332.029259,70.22912 L332.029259,70.234885 L335.367198,70.234885 L334.98751,87.79 L335.029259,87.79 C335.109407,87.79 338.068313,87.259599 340.816486,86.279511 C348.310455,83.641919 354.245586,77.709501 356.898497,70.237768 C357.871328,67.481989 358.402487,64.533076 358.402487,61.454445 L358.402487,61.454445 L358.402487,26.329801 C358.402487,23.25117 357.871328,20.302257 356.898497,17.546478 C354.245586,10.071862 348.307569,4.148092 340.816486,1.49897 C338.068313,0.527529 335.109407,-0.005754 332.029259,-0.005754 L297.355651,-0.005754 L331.98751,17.549361 L332.029259,17.549361 L332.029259,17.543596 Z'></path>
				                         <g id="Shape" transform="translate(187.909252, 0.002883)">
				                             <polygon points="281.588888 0 264.0 0 264.0 87.7986367 281.588888 87.7986367 281.588888 25.6768759 335.645586 87.6768759 334.84341 60.1246434 281.588888 0.1246434"></polygon>
				                             <polygon points="334.84341 0 334.84341 17.4599889 334.84341 35.1246434 334.84341 87.7986367 352.429411 87.7986367 352.429411 0"></polygon>
				                         </g>

				                         <!-- 字母c -->
				                         <path id="Shape" d="M385.560741,70.2464042 L385.560741,70.2406389 L385.560741,70.2406389 C380.705249,70.2406389 376.779287,66.3058717 376.779287,61.4630814 L376.773514,61.4630814 L376.773514,26.338438 L376.779287,26.338438 L376.779287,26.338438 C376.779287,21.4956476 380.705249,17.5608804 385.560741,17.5608804 L385.560741,17.5608804 L385.560741,17.5551152 L441.222802,17.5551152 L447.60249,0 L385.560741,0 C382.480593,0 379.521687,0.530400852 376.773514,1.51048938 C369.279545,4.14808058 363.344414,10.0804988 360.691503,17.5522325 C359.718672,20.3080109 359.187513,23.2569243 359.187513,26.3355554 L359.187513,26.3355554 L359.187513,61.4601987 C359.187513,64.5388298 359.718672,67.4877432 360.691503,70.2435216 C363.344414,77.7181379 369.282431,83.6419083 376.773514,86.2910299 C379.521687,87.2624706 382.480593,87.7957541 385.560741,87.7957541 L441.234349,87.7957541 L447.60249,70.2406389 L385.560741,70.2406389 L385.560741,70.2464042 Z"></path>

				                         <polygon id="Shape" points='152.188806 0.00288261332 152.188806 17.5579978 152.188806 17.5579978 152.188806 87.8015193 169.76903400000003 87.8015193 169.76903400000003 17.5579978 169.80672100000004 17.5579978 169.17197499999997 0.00288261332'></polygon>

																 <path id="Shape" d="M603.842859,48.2953037 C603.417076,48.5758935 602.984692,48.8399781 602.545706,49.0974606 C602.987992,48.8399781 603.417076,48.5758935 603.842859,48.2953037 L603.842859,48.2953037 Z"></path></g></g></g></g></g>
																                    </svg>
